<svg xmlns="http://www.w3.org/2000/svg" xmlns:xlink="http://www.w3.org/1999/xlink" viewBox="0 0 385.52 385.52"><defs><style>.cls-1{fill:none;stroke:#f7941d;stroke-miterlimit:10;stroke-width:22px;}.cls-2{fill:url(#linear-gradient);}.cls-3{fill:url(#linear-gradient-2);}.cls-4{fill:url(#linear-gradient-3);}</style><linearGradient id="linear-gradient" x1="202.48" y1="307.71" x2="202.48" y2="36.62" gradientUnits="userSpaceOnUse"><stop offset="0.19" stop-color="#fdc70c"/><stop offset="0.89" stop-color="#ed683c"/><stop offset="1" stop-color="#e93e3a"/></linearGradient><linearGradient id="linear-gradient-2" x1="167.75" y1="354.93" x2="167.75" y2="290.14" gradientUnits="userSpaceOnUse"><stop offset="0" stop-color="#e93e3a"/><stop offset="1" stop-color="#fdc70c"/></linearGradient><linearGradient id="linear-gradient-3" x1="226.17" y1="358.04" x2="226.17" y2="297.43" xlink:href="#linear-gradient-2"/></defs><g id="Layer_2" data-name="Layer 2"><circle class="cls-1" cx="192.76" cy="192.76" r="181.76"/><path class="cls-2" d="M176.17,80.24s1.06-31.65,7.92-34.29,24.26-4.22,27.95,2.64,5.11,3.79,9,10.55c3,5.22-1,6.86,5.27,21.1s-2.58,28.5-3.69,34.29C221,122.79,212,179.41,241.05,192.6s40.09,83.87,2.11,106.55c-34.74,20.75-66.4-2.21-71.54-6.27a1.63,1.63,0,0,0-1.56-.26,19.49,19.49,0,0,1-11.13.58c-8-2-17.54-10.32-20.73-37.31-5.59-47.23,23.54-72.45,25.71-74.27a1.36,1.36,0,0,0,.24-.24c1.44-1.85,16.42-21.33,19.94-38.9,3.46-17.33,4.14-24.43,2-34a1.65,1.65,0,0,0-2.2-1.19c-5.09,2-20,7.1-27.32,2.16a1.65,1.65,0,0,1-.26-2.54C160.82,102.46,175.75,87,176.17,80.24Z" transform="translate(-7.24 -7.24)"/><path class="cls-3" d="M159.75,294.45c6.19,28.23,5.42,38.42,4.32,42a3.25,3.25,0,0,1-2.4,2.22c-3.75.84-14.55,3.55-19.4,7.77a3.25,3.25,0,0,0,2.44,5.69c7.34-.7,22-1.47,29.2,2.39a3.29,3.29,0,0,0,2.71.16c1.79-.67,5-3.92,8.74-2.79,17.6,5.43,4.54-6,1.24-8.1-5.67-3.58-11.73-8-13.06-11.21-2.14-5.13-2.55-30-2.62-39.25a3.25,3.25,0,0,0-3.5-3.21l-4.74.36A3.26,3.26,0,0,0,159.75,294.45Z" transform="translate(-7.24 -7.24)"/><path class="cls-4" d="M230.75,302.36a.85.85,0,0,0-.44,1.06c1.43,3.87,7.18,22.22-7.72,34.47-11.89,9.77-18.1,9.14-20.71,7.94a3.55,3.55,0,0,0-4.31.94c-1.31,1.68-.8,4.08,9.2,5.89,8.22,1.48,2,6.11,7.84,5.28a.47.47,0,0,0,.16,0c1.34-.46,19.57-6.67,36.83-2.61,0,0,7.43.14,1.24-7.5-.15-.18-8.7-1.05-8.94-1.05-2.32,0-7.59.18-7.1-4.39a1.09,1.09,0,0,0-.05-.44c-.59-1.47-3.62-11.45,5.88-43.39a.84.84,0,0,0-1.15-1Z" transform="translate(-7.24 -7.24)"/></g></svg>